<svg id="kity_svg_6" xmlns="http://www.w3.org/2000/svg" xmlns:xlink="http://www.w3.org/1999/xlink" version="1.1" width="520" height="300" style="background: rgb(251, 251, 251); visibility: visible;" viewBox="0 0 520 300"><defs id="kity_defs_7"><linearGradient id="kity_linearGradient_17" x1="0" y1="0" x2="0" y2="1"><stop id="kity_stop_18" offset="0" stop-color="rgb(255, 255, 255)"></stop><stop id="kity_stop_19" offset="1" stop-color="rgb(204, 204, 204)"></stop></linearGradient><marker id="kity_marker_2" orient="auto" refX="6" refY="0" viewBox="-7 -7 14 14" markerWidth="7" markerHeight="7" markerUnits="userSpaceOnUse"><path id="kity_path_3" fill="rgb(115, 161, 191)" stroke="none" d="M6,0A6,6,0,1,1,-6,0A6,6,0,1,1,6,0"></path></marker></defs><g id="kity_g_8"><g id="minder1" text-rendering="optimize-speed"><g id="minder_connect_group1"><path id="kity_path_31" fill="none" stroke="rgb(115, 161, 191)" stroke-width="1" d="M70,101.5A65.5,59,0,0,1,135.5,42.5"></path><path id="kity_path_33" fill="none" stroke="rgb(115, 161, 191)" stroke-width="1" d="M227.5,42.5C235.5,42.5,235.5,29.5,243.5,29.5"></path><path id="kity_path_35" fill="none" stroke="rgb(115, 161, 191)" stroke-width="1" d="M227.5,42.5C235.5,42.5,235.5,55.5,243.5,55.5"></path><path id="kity_path_37" fill="none" stroke="rgb(115, 161, 191)" stroke-width="1" d="M70,101.5A65.5,59,0,0,0,135.5,160.5"></path><path id="kity_path_39" fill="none" stroke="rgb(115, 161, 191)" stroke-width="1" d="M223.5,160.5C231.5,160.5,231.5,102.5,239.5,102.5"></path><path id="kity_path_41" fill="none" stroke="rgb(115, 161, 191)" stroke-width="1" d="M310.5,102.5C318.5,102.5,318.5,89.5,326.5,89.5"></path><path id="kity_path_43" fill="none" stroke="rgb(115, 161, 191)" stroke-width="1" d="M310.5,102.5C318.5,102.5,318.5,115.5,326.5,115.5"></path><path id="kity_path_45" fill="none" stroke="rgb(115, 161, 191)" stroke-width="1" d="M223.5,160.5C231.5,160.5,231.5,219.5,239.5,219.5"></path><path id="kity_path_47" fill="none" stroke="rgb(115, 161, 191)" stroke-width="1" d="M295.5,219.5C303.5,219.5,303.5,180.5,311.5,180.5"></path><path id="kity_path_49" fill="none" stroke="rgb(115, 161, 191)" stroke-width="1" d="M394.5,180.5C402.5,180.5,402.5,141.5,410.5,141.5"></path><path id="kity_path_51" fill="none" stroke="rgb(115, 161, 191)" stroke-width="1" d="M394.5,180.5C402.5,180.5,402.5,167.5,410.5,167.5"></path><path id="kity_path_53" fill="none" stroke="rgb(115, 161, 191)" stroke-width="1" d="M394.5,180.5C402.5,180.5,402.5,193.5,410.5,193.5"></path><path id="kity_path_55" fill="none" stroke="rgb(115, 161, 191)" stroke-width="1" d="M394.5,180.5C402.5,180.5,402.5,219.5,410.5,219.5"></path><path id="kity_path_57" fill="none" stroke="rgb(115, 161, 191)" stroke-width="1" d="M295.5,219.5C303.5,219.5,303.5,258.5,311.5,258.5"></path><path id="kity_path_59" fill="none" stroke="rgb(115, 161, 191)" stroke-width="1" d="M417.5,258.5C425.5,258.5,425.5,245.5,433.5,245.5"></path><path id="kity_path_61" fill="none" stroke="rgb(115, 161, 191)" stroke-width="1" d="M417.5,258.5C425.5,258.5,425.5,271.5,433.5,271.5"></path></g><g id="minder_node1"><path id="kity_path_160" fill="rgba(0, 0, 0, .25)" stroke="none" d="M31.5,89.5h122a5,5,0,0,1,5,5v24a5,5,0,0,1,-5,5h-122a5,5,0,0,1,-5,-5v-24a5,5,0,0,1,5,-5z" display="none"></path><path id="node_outline1" fill="rgb(115, 161, 191)" stroke="rgb(115, 161, 191)" d="M25.5,87.5h89a5,5,0,0,1,5,5v18a5,5,0,0,1,-5,5h-89a5,5,0,0,1,-5,-5v-18a5,5,0,0,1,5,-5z" stroke-width="3"></path><g id="node_text1" fill="white"><text id="kity_text_22" text-rendering="inherit" font-size="16" dy=".8em" y="93.5" x="32.5">开源OLAP</text></g></g><g id="kity_g_12"><path id="kity_path_13" fill="none" stroke="none" d="M32.5,101.5h0v0h0z"></path></g><g id="kity_g_14"><path id="kity_path_15" fill="none" stroke="none" d="M32.5,101.5h0v0h0z"></path><path id="kity_path_16" fill="none" stroke="none"></path></g><g id="minder_node2"><path id="kity_path_158" fill="rgba(0, 0, 0, .25)" stroke="none" d="M156.5,35.5h67a5,5,0,0,1,5,5v14a5,5,0,0,1,-5,5h-67a5,5,0,0,1,-5,-5v-14a5,5,0,0,1,5,-5z" display="none"></path><g id="node_expander3" style="cursor: pointer;"><path id="kity_path_117" fill="white" stroke="gray" d="M136.5,42.5A6,6,0,1,1,124.5,42.5A6,6,0,1,1,136.5,42.5"></path><path id="kity_path_118" fill="none" stroke="gray" d="M126,42.5L135,42.5"></path></g><path id="node_outline4" fill="rgb(238, 243, 246)" stroke="rgb(115, 161, 191)" d="M140.5,29.5h84a3,3,0,0,1,3,3v20a3,3,0,0,1,-3,3h-84a3,3,0,0,1,-3,-3v-20a3,3,0,0,1,3,-3z" stroke-width="1"></path><g id="node_text4" fill="black"><text id="kity_text_67" text-rendering="inherit" font-size="14" dy=".8em" y="35.5" x="157.5">MOLAP</text></g></g><g id="minder_node3"><path id="kity_path_161" fill="rgba(0, 0, 0, .25)" stroke="none" d="M269,11h0a24,24,0,0,1,24,24v0a24,24,0,0,1,-24,24h0a24,24,0,0,1,-24,-24v0a24,24,0,0,1,24,-24z" display="none"></path><g id="node_expander1" style="cursor: pointer;" display="none"><path id="kity_path_111" fill="white" stroke="gray" d="M243.5,29.5A6,6,0,1,1,231.5,29.5A6,6,0,1,1,243.5,29.5"></path><path id="kity_path_112" fill="none" stroke="gray"></path></g><path id="node_outline2" fill="none" stroke="none" d="M248.5,20.5h30a5,5,0,0,1,5,5v8a5,5,0,0,1,-5,5h-30a5,5,0,0,1,-5,-5v-8a5,5,0,0,1,5,-5z" stroke-width="3"></path><g id="node_text2" fill="black"><text id="kity_text_63" text-rendering="inherit" font-size="12" dy=".8em" y="23.5" x="248.5">Druid</text></g></g><g id="minder_node4"><path id="kity_path_162" fill="rgba(0, 0, 0, .25)" stroke="none" d="M266.5,39h0a22,22,0,0,1,22,22v0a22,22,0,0,1,-22,22h0a22,22,0,0,1,-22,-22v0a22,22,0,0,1,22,-22z" display="none"></path><g id="node_expander2" style="cursor: pointer;" display="none"><path id="kity_path_114" fill="white" stroke="gray" d="M243.5,55.5A6,6,0,1,1,231.5,55.5A6,6,0,1,1,243.5,55.5"></path><path id="kity_path_115" fill="none" stroke="gray"></path></g><path id="node_outline3" fill="none" stroke="none" d="M248.5,46.5h26a5,5,0,0,1,5,5v8a5,5,0,0,1,-5,5h-26a5,5,0,0,1,-5,-5v-8a5,5,0,0,1,5,-5z" stroke-width="3"></path><g id="node_text3" fill="black"><text id="kity_text_65" text-rendering="inherit" font-size="12" dy=".8em" y="49.5" x="248.5">Kylin</text></g></g><g id="minder_node5"><path id="kity_path_159" fill="rgba(0, 0, 0, .25)" stroke="none" d="M156.5,153.5h62a5,5,0,0,1,5,5v14a5,5,0,0,1,-5,5h-62a5,5,0,0,1,-5,-5v-14a5,5,0,0,1,5,-5z" display="none"></path><g id="node_expander16" style="cursor: pointer;"><path id="kity_path_156" fill="white" stroke="gray" d="M136.5,160.5A6,6,0,1,1,124.5,160.5A6,6,0,1,1,136.5,160.5"></path><path id="kity_path_157" fill="none" stroke="gray" d="M126,160.5L135,160.5"></path></g><path id="node_outline17" fill="rgb(238, 243, 246)" stroke="rgb(115, 161, 191)" d="M140.5,147.5h80a3,3,0,0,1,3,3v20a3,3,0,0,1,-3,3h-80a3,3,0,0,1,-3,-3v-20a3,3,0,0,1,3,-3z" stroke-width="1"></path><g id="node_text17" fill="black"><text id="kity_text_93" text-rendering="inherit" font-size="14" dy=".8em" y="153.5" x="157.5">ROLAP</text></g></g><g id="minder_node6"><path id="kity_path_165" fill="rgba(0, 0, 0, .25)" stroke="none" d="M281.5,68h0a40,40,0,0,1,40,40v0a40,40,0,0,1,-40,40h0a40,40,0,0,1,-40,-40v0a40,40,0,0,1,40,-40z" display="none"></path><g id="node_expander6" style="cursor: pointer;"><path id="kity_path_126" fill="white" stroke="gray" d="M239.5,102.5A6,6,0,1,1,227.5,102.5A6,6,0,1,1,239.5,102.5"></path><path id="kity_path_127" fill="none" stroke="gray" d="M229,102.5L238,102.5"></path></g><path id="node_outline7" fill="none" stroke="none" d="M244.5,93.5h61a5,5,0,0,1,5,5v8a5,5,0,0,1,-5,5h-61a5,5,0,0,1,-5,-5v-8a5,5,0,0,1,5,-5z" stroke-width="3"></path><g id="node_text7" fill="black"><text id="kity_text_73" text-rendering="inherit" font-size="12" dy=".8em" y="96.5" x="244.5">MPP数据库</text></g></g><g id="minder_node7"><path id="kity_path_163" fill="rgba(0, 0, 0, .25)" stroke="none" d="M371.5,52h0a43,43,0,0,1,43,43v0a43,43,0,0,1,-43,43h0a43,43,0,0,1,-43,-43v0a43,43,0,0,1,43,-43z" display="none"></path><g id="node_expander4" style="cursor: pointer;" display="none"><path id="kity_path_120" fill="white" stroke="gray" d="M326.5,89.5A6,6,0,1,1,314.5,89.5A6,6,0,1,1,326.5,89.5"></path><path id="kity_path_121" fill="none" stroke="gray"></path></g><path id="node_outline5" fill="none" stroke="none" d="M331.5,80.5h66a5,5,0,0,1,5,5v8a5,5,0,0,1,-5,5h-66a5,5,0,0,1,-5,-5v-8a5,5,0,0,1,5,-5z" stroke-width="3"></path><g id="node_text5" fill="black"><text id="kity_text_69" text-rendering="inherit" font-size="12" dy=".8em" y="83.5" x="331.5">Greenplum</text></g></g><g id="minder_node8"><path id="kity_path_164" fill="rgba(0, 0, 0, .25)" stroke="none" d="M370.5,79h0a42,42,0,0,1,42,42v0a42,42,0,0,1,-42,42h0a42,42,0,0,1,-42,-42v0a42,42,0,0,1,42,-42z" display="none"></path><g id="node_expander5" style="cursor: pointer;" display="none"><path id="kity_path_123" fill="white" stroke="gray" d="M326.5,115.5A6,6,0,1,1,314.5,115.5A6,6,0,1,1,326.5,115.5"></path><path id="kity_path_124" fill="none" stroke="gray"></path></g><path id="node_outline6" fill="none" stroke="none" d="M331.5,106.5h64a5,5,0,0,1,5,5v8a5,5,0,0,1,-5,5h-64a5,5,0,0,1,-5,-5v-8a5,5,0,0,1,5,-5z" stroke-width="3"></path><g id="node_text6" fill="black"><text id="kity_text_71" text-rendering="inherit" font-size="12" dy=".8em" y="109.5" x="331.5">ClickHouse</text></g></g><g id="minder_node9"><path id="kity_path_174" fill="rgba(0, 0, 0, .25)" stroke="none" d="M273.5,193h0a32,32,0,0,1,32,32v0a32,32,0,0,1,-32,32h0a32,32,0,0,1,-32,-32v0a32,32,0,0,1,32,-32z" display="none"></path><g id="node_expander15" style="cursor: pointer;"><path id="kity_path_153" fill="white" stroke="gray" d="M239.5,219.5A6,6,0,1,1,227.5,219.5A6,6,0,1,1,239.5,219.5"></path><path id="kity_path_154" fill="none" stroke="gray" d="M229,219.5L238,219.5"></path></g><path id="node_outline16" fill="none" stroke="none" d="M244.5,210.5h46a5,5,0,0,1,5,5v8a5,5,0,0,1,-5,5h-46a5,5,0,0,1,-5,-5v-8a5,5,0,0,1,5,-5z" stroke-width="3"></path><g id="node_text16" fill="black"><text id="kity_text_91" text-rendering="inherit" font-size="12" dy=".8em" y="213.5" x="244.5">SQL引擎</text></g></g><g id="minder_node10"><path id="kity_path_170" fill="rgba(0, 0, 0, .25)" stroke="none" d="M360,140h0a46,46,0,0,1,46,46v0a46,46,0,0,1,-46,46h0a46,46,0,0,1,-46,-46v0a46,46,0,0,1,46,-46z" display="none"></path><g id="node_expander11" style="cursor: pointer;"><path id="kity_path_141" fill="white" stroke="gray" d="M311.5,180.5A6,6,0,1,1,299.5,180.5A6,6,0,1,1,311.5,180.5"></path><path id="kity_path_142" fill="none" stroke="gray" d="M301,180.5L310,180.5"></path></g><path id="node_outline12" fill="none" stroke="none" d="M316.5,171.5h73a5,5,0,0,1,5,5v8a5,5,0,0,1,-5,5h-73a5,5,0,0,1,-5,-5v-8a5,5,0,0,1,5,-5z" stroke-width="3"></path><g id="node_text12" fill="black"><text id="kity_text_83" text-rendering="inherit" font-size="12" dy=".8em" y="174.5" x="316.5">基于MPP架构</text></g></g><g id="minder_node11"><path id="kity_path_166" fill="rgba(0, 0, 0, .25)" stroke="none" d="M441.5,118h0a29,29,0,0,1,29,29v0a29,29,0,0,1,-29,29h0a29,29,0,0,1,-29,-29v0a29,29,0,0,1,29,-29z" display="none"></path><g id="node_expander7" style="cursor: pointer;" display="none"><path id="kity_path_129" fill="white" stroke="gray" d="M410.5,141.5A6,6,0,1,1,398.5,141.5A6,6,0,1,1,410.5,141.5"></path><path id="kity_path_130" fill="none" stroke="gray"></path></g><path id="node_outline8" fill="none" stroke="none" d="M415.5,132.5h41a5,5,0,0,1,5,5v8a5,5,0,0,1,-5,5h-41a5,5,0,0,1,-5,-5v-8a5,5,0,0,1,5,-5z" stroke-width="3"></path><g id="node_text8" fill="black"><text id="kity_text_75" text-rendering="inherit" font-size="12" dy=".8em" y="135.5" x="415.5">Impala</text></g></g><g id="minder_node12"><path id="kity_path_167" fill="rgba(0, 0, 0, .25)" stroke="none" d="M438,147h0a26,26,0,0,1,26,26v0a26,26,0,0,1,-26,26h0a26,26,0,0,1,-26,-26v0a26,26,0,0,1,26,-26z" display="none"></path><g id="node_expander8" style="cursor: pointer;" display="none"><path id="kity_path_132" fill="white" stroke="gray" d="M410.5,167.5A6,6,0,1,1,398.5,167.5A6,6,0,1,1,410.5,167.5"></path><path id="kity_path_133" fill="none" stroke="gray"></path></g><path id="node_outline9" fill="none" stroke="none" d="M415.5,158.5h35a5,5,0,0,1,5,5v8a5,5,0,0,1,-5,5h-35a5,5,0,0,1,-5,-5v-8a5,5,0,0,1,5,-5z" stroke-width="3"></path><g id="node_text9" fill="black"><text id="kity_text_77" text-rendering="inherit" font-size="12" dy=".8em" y="161.5" x="415.5">Hawq</text></g></g><g id="minder_node13"><path id="kity_path_168" fill="rgba(0, 0, 0, .25)" stroke="none" d="M438.5,172h0a27,27,0,0,1,27,27v0a27,27,0,0,1,-27,27h0a27,27,0,0,1,-27,-27v0a27,27,0,0,1,27,-27z" display="none"></path><g id="node_expander9" style="cursor: pointer;" display="none"><path id="kity_path_135" fill="white" stroke="gray" d="M410.5,193.5A6,6,0,1,1,398.5,193.5A6,6,0,1,1,410.5,193.5"></path><path id="kity_path_136" fill="none" stroke="gray"></path></g><path id="node_outline10" fill="none" stroke="none" d="M415.5,184.5h35a5,5,0,0,1,5,5v8a5,5,0,0,1,-5,5h-35a5,5,0,0,1,-5,-5v-8a5,5,0,0,1,5,-5z" stroke-width="3"></path><g id="node_text10" fill="black"><text id="kity_text_79" text-rendering="inherit" font-size="12" dy=".8em" y="187.5" x="415.5">Presto</text></g></g><g id="minder_node14"><path id="kity_path_169" fill="rgba(0, 0, 0, .25)" stroke="none" d="M430,206h0a19,19,0,0,1,19,19v0a19,19,0,0,1,-19,19h0a19,19,0,0,1,-19,-19v0a19,19,0,0,1,19,-19z" display="none"></path><g id="node_expander10" style="cursor: pointer;" display="none"><path id="kity_path_138" fill="white" stroke="gray" d="M410.5,219.5A6,6,0,1,1,398.5,219.5A6,6,0,1,1,410.5,219.5"></path><path id="kity_path_139" fill="none" stroke="gray"></path></g><path id="node_outline11" fill="none" stroke="none" d="M415.5,210.5h20a5,5,0,0,1,5,5v8a5,5,0,0,1,-5,5h-20a5,5,0,0,1,-5,-5v-8a5,5,0,0,1,5,-5z" stroke-width="3"></path><g id="node_text11" fill="black"><text id="kity_text_81" text-rendering="inherit" font-size="12" dy=".8em" y="213.5" x="415.5">Drill</text></g></g><g id="minder_node15"><path id="kity_path_173" fill="rgba(0, 0, 0, .25)" stroke="none" d="M372.5,206h0a58,58,0,0,1,58,58v0a58,58,0,0,1,-58,58h0a58,58,0,0,1,-58,-58v0a58,58,0,0,1,58,-58z" display="none"></path><g id="node_expander14" style="cursor: pointer;"><path id="kity_path_150" fill="white" stroke="gray" d="M311.5,258.5A6,6,0,1,1,299.5,258.5A6,6,0,1,1,311.5,258.5"></path><path id="kity_path_151" fill="none" stroke="gray" d="M301,258.5L310,258.5"></path></g><path id="node_outline15" fill="none" stroke="none" d="M316.5,249.5h96a5,5,0,0,1,5,5v8a5,5,0,0,1,-5,5h-96a5,5,0,0,1,-5,-5v-8a5,5,0,0,1,5,-5z" stroke-width="3"></path><g id="node_text15" fill="black"><text id="kity_text_89" text-rendering="inherit" font-size="12" dy=".8em" y="252.5" x="316.5">基于通用计算框架</text></g></g><g id="minder_node16"><path id="kity_path_171" fill="rgba(0, 0, 0, .25)" stroke="none" d="M456,229h0a22,22,0,0,1,22,22v0a22,22,0,0,1,-22,22h0a22,22,0,0,1,-22,-22v0a22,22,0,0,1,22,-22z" display="none"></path><g id="node_expander12" style="cursor: pointer;" display="none"><path id="kity_path_144" fill="white" stroke="gray" d="M433.5,245.5A6,6,0,1,1,421.5,245.5A6,6,0,1,1,433.5,245.5"></path><path id="kity_path_145" fill="none" stroke="gray"></path></g><path id="node_outline13" fill="none" stroke="none" d="M438.5,236.5h25a5,5,0,0,1,5,5v8a5,5,0,0,1,-5,5h-25a5,5,0,0,1,-5,-5v-8a5,5,0,0,1,5,-5z" stroke-width="3"></path><g id="node_text13" fill="black"><text id="kity_text_85" text-rendering="inherit" font-size="12" dy=".8em" y="239.5" x="438.5">Hive</text></g></g><g id="minder_node17"><path id="kity_path_172" fill="rgba(0, 0, 0, .25)" stroke="none" d="M473.5,239h0a38,38,0,0,1,38,38v0a38,38,0,0,1,-38,38h0a38,38,0,0,1,-38,-38v0a38,38,0,0,1,38,-38z" display="none"></path><g id="node_expander13" style="cursor: pointer;" display="none"><path id="kity_path_147" fill="white" stroke="gray" d="M433.5,271.5A6,6,0,1,1,421.5,271.5A6,6,0,1,1,433.5,271.5"></path><path id="kity_path_148" fill="none" stroke="gray"></path></g><path id="node_outline14" fill="none" stroke="none" d="M438.5,262.5h57a5,5,0,0,1,5,5v8a5,5,0,0,1,-5,5h-57a5,5,0,0,1,-5,-5v-8a5,5,0,0,1,5,-5z" stroke-width="3"></path><g id="node_text14" fill="black"><text id="kity_text_87" text-rendering="inherit" font-size="12" dy=".8em" y="265.5" x="438.5">Spark SQL</text></g></g></g></g></svg>